<svg xmlns="http://www.w3.org/2000/svg" viewBox="0 0 180 220" fill="none">
  <g>
    <!-- S-shaped path with tech dots -->
    <path d="M90 10 C40 10, 20 50, 60 80 C100 110, 80 150, 40 150 C20 150, 10 130, 30 110 C50 90, 90 90, 110 110 C130 130, 120 170, 90 180" 
          stroke="currentColor" stroke-width="12" stroke-linecap="round" fill="none"/>
    <!-- Tech circuit dots -->
    <circle cx="90" cy="10" r="6" fill="currentColor"/>
    <circle cx="110" cy="50" r="4" fill="currentColor"/>
    <circle cx="60" cy="80" r="5" fill="currentColor"/>
    <circle cx="40" cy="150" r="4" fill="currentColor"/>
    <circle cx="90" cy="180" r="6" fill="currentColor"/>
    <!-- Connecting lines -->
    <line x1="110" y1="50" x2="130" y2="50" stroke="currentColor" stroke-width="2"/>
    <line x1="60" y1="80" x2="40" y2="80" stroke="currentColor" stroke-width="2"/>
    <circle cx="130" cy="50" r="3" fill="currentColor"/>
    <circle cx="40" cy="80" r="3" fill="currentColor"/>
  </g>
  <!-- Text -->
  <text x="90" y="210" text-anchor="middle" font-family="system-ui, sans-serif" font-size="22" font-weight="600" fill="currentColor">Skynologix</text>
</svg>
