<svg id="Layer_1" data-name="Layer 1" xmlns="http://www.w3.org/2000/svg" viewBox="0 0 753.47 633.99"><defs><style>.cls-1{fill:#ffffff;}</style></defs><path class="cls-1" d="M745.44,603c0-.37,0-.74,0-1.11s0-.57,0-.84Q745.44,602,745.44,603Z" transform="translate(-163.26 -223)"/><path class="cls-1" d="M298.27,420.06c14.3,45.12,48.2,83.1,90.2,104.93a42,42,0,0,0-.36,5.41A41.2,41.2,0,0,0,468,544.53l184.47-.25c12.19,0,25.11.17,35.47,6.6A32.82,32.82,0,0,1,683.47,609c-8.17,3.47-17.32,3.49-26.18,3.46-45.49-.15-179.66-.31-290.93-.47a74.44,74.44,0,0,0-74.54,74.44c53.67.12,109.3.24,157.23.36s88.18.23,111.09.35c39.59.21,79.92.31,117.74-11.41,23.63-7.32,47-20.34,58.93-42a66,66,0,0,0,8-30.56c.57-25.07-11.45-51.23-29.62-69.42-25.86-25.89-61.39-39.25-95.9-51.4-63-22.17-126.48-42.76-189.42-65-30.72-10.86-62.24-22.69-85.82-45.18a99.58,99.58,0,0,1-13.9-16.52,104.49,104.49,0,0,1-18.64-59.75c0-1.54,0-3.07.11-4.59-5,6.86-8.79,18.79-11,24.77a157.53,157.53,0,0,0-8.4,34.16c-.14,1-.26,2.07-.37,3.11a162.47,162.47,0,0,0,0,36.22A159.14,159.14,0,0,0,298.27,420.06ZM696.7,530.85l0,0h0ZM429.3,550.6a20.2,20.2,0,1,1,20.2-20.2A20.22,20.22,0,0,1,429.3,550.6Zm257.15-25.83-216.24.83A41.19,41.19,0,0,0,396.13,506C352,483.79,319,440.77,308.93,392.46,312.78,407.63,350.36,503.42,686.45,524.77Z" transform="translate(-163.26 -223)"/><path class="cls-1" d="M377.91,377.1c1.55.74,3.13,1.42,4.75,2,12.78,4.7,26.71,4.76,40.32,4.76H648A41.18,41.18,0,0,0,719,408a153.68,153.68,0,0,1,49.52,135.25l-.44,3.23-1.45-2.93c-9.47-19.21-28.79-33.31-49.93-36.76,16.85,12.84,29.57,28.8,36.88,46.34,7.2,17.26,8.92,36.41,4.92,53.43a160.35,160.35,0,0,0,28.06-86.11c.07-2.5.09-5,.06-7.36a161.15,161.15,0,0,0-58.09-121.75,41.19,41.19,0,0,0-77.93-26.47H408.25a33.91,33.91,0,1,1,0-67.81H712.16A74.07,74.07,0,0,0,786.23,223H475.6c-7.22,0-14.45.15-21.64.52-35.22,1.79-69.4,9-96.4,32-12.52,10.65-22.34,25.14-24.83,41.38-2.73,17.88,3.63,36.18,13.6,51.28C354.29,360.27,364.91,371,377.91,377.1Zm311-17.49a20.2,20.2,0,1,1-20.19,20.19A20.21,20.21,0,0,1,688.94,359.61Z" transform="translate(-163.26 -223)"/><path class="cls-1" d="M236.19,782.11a40.05,40.05,0,0,0-15.19-6.5c-20.78-4.37-40.46-4.37-39.92-19.13s54.4-9.57,61.79-1.64v-17s-63.7-17.77-78.19,13.39c0,0-8.75,21.87,17.22,31.72,0,0,2.1,1.57,24.71,5.73.85.15,1.69.28,2.55.39,4.39.56,21.61,3.51,21.13,15.2-.55,13.39-23,12.85-23,12.85s-30.18,1.09-44.07-10.12V825.1s38.05,11.48,64.3,3.82c10.93-3.19,16.17-9.51,18.56-15.8C250.42,801.83,246,789.14,236.19,782.11Z" transform="translate(-163.26 -223)"/><polygon class="cls-1" points="168.45 537.63 146.85 537.63 115.42 569.78 115.42 508.52 98.74 508.52 98.74 608.74 115.42 608.74 115.42 583.94 121.7 578.2 150.41 608.74 173.37 608.74 138.1 569.15 168.45 537.63"/><path class="cls-1" d="M374.91,808.8l-21.05-48.7H334.72L365.89,824a45.78,45.78,0,0,1-1.82,5.73,18.34,18.34,0,0,1-16.7,11.53l-6.09.12V856h10.14a30.34,30.34,0,0,0,5.55-.44c16.24-3.08,21.76-18.6,21.76-18.6l35-76.85H395.68Z" transform="translate(-163.26 -223)"/><rect class="cls-1" x="435.81" y="509.42" width="16.95" height="99.26"/><rect class="cls-1" x="647.4" y="537.28" width="16.95" height="71.4"/><path class="cls-1" d="M470.86,760.24c-16-1.14-25.74,4.92-31.16,10.35V760.1H422.75v71.64H439.7v-37a19.63,19.63,0,0,1,6-14.2l.06,0a21.09,21.09,0,0,1,17.28-6,14.38,14.38,0,0,1,13,14.81v42.39h17.76V789.82a40.3,40.3,0,0,0-1.37-10.89C487,759.54,470.86,760.24,470.86,760.24Z" transform="translate(-163.26 -223)"/><path class="cls-1" d="M546,760.1s-43.74-.42-39.37,41.66c0,0,2.19,28.79,39.37,29.9s41-31.84,41-31.84S590.87,763.57,546,760.1Zm23.78,34.82c-1.09,22.76-23.07,23.17-23.07,23.17s-21.49-.28-22.58-22.19c-.63-12.66,7-18.62,13.55-21.4a25.37,25.37,0,0,1,18.48-.62C571,779.26,569.82,794.92,569.82,794.92Z" transform="translate(-163.26 -223)"/><path class="cls-1" d="M669.12,760.1s-43.74-.42-39.37,41.66c0,0,2.19,28.79,39.37,29.9s41-31.84,41-31.84S714,763.57,669.12,760.1Zm23.78,34.82c-1.09,22.76-23.08,23.17-23.08,23.17s-21.48-.28-22.57-22.19c-.63-12.66,7-18.62,13.53-21.4a25.4,25.4,0,0,1,18.49-.62C694.12,779.26,692.9,794.92,692.9,794.92Z" transform="translate(-163.26 -223)"/><path class="cls-1" d="M793.52,760.85H776.77l-.55,8.31s-8.2-12.06-32-8.36c-11.79,1.84-18.14,10.36-21.55,18.5-4.46,10.66-4.65,22.77.39,33.17,4.14,8.52,12.27,17.08,28.26,17.22,0,0,20.78,0,24.88-12.6,0,0,4.92,20.82-11.48,24.93s-36.36-2.47-38.55-5.48v15.61s32,10.13,50.73,1.1,16.52-31.5,16.52-31.5ZM777,797.92c-2.73,20-20.87,18.62-20.87,18.62-20.29-1.79-18.77-20.31-18.77-20.31-.27-24.17,20-22.14,20-22.14C780.87,775.18,777,797.92,777,797.92Z" transform="translate(-163.26 -223)"/><polygon class="cls-1" points="753.47 537.28 732.7 537.28 714.11 562.09 697.98 537.28 677.2 537.28 703.99 573.01 673.25 608.68 693.88 608.68 713.83 583.11 732.97 608.68 753.47 608.68 725.04 571.75 753.47 537.28"/><ellipse class="cls-1" cx="655.88" cy="520.4" rx="10.52" ry="8.34"/></svg>
