<svg xmlns="http://www.w3.org/2000/svg" viewBox="0 0 64 64" fill="none">
  <rect width="64" height="64" rx="14" fill="#0a1628"/>
  <g transform="translate(8, 4) scale(0.3)">
    <path d="M80 8 C30 8, 12 45, 55 72 C98 99, 82 140, 38 140 C18 140, 8 122, 28 104 C48 86, 88 86, 108 104 C128 122, 118 158, 80 168"
          stroke="#94a3b8" stroke-width="16" stroke-linecap="round" fill="none" opacity="0.3"/>
    <path d="M80 8 C30 8, 12 45, 55 72 C98 99, 82 140, 38 140 C18 140, 8 122, 28 104 C48 86, 88 86, 108 104 C128 122, 118 158, 80 168"
          stroke="#94a3b8" stroke-width="9" stroke-linecap="round" fill="none"/>
    <circle cx="80" cy="8" r="5.5" fill="#94a3b8"/>
    <circle cx="108" cy="44" r="4" fill="#94a3b8"/>
    <circle cx="55" cy="72" r="4.5" fill="#94a3b8"/>
    <circle cx="38" cy="140" r="4" fill="#94a3b8"/>
    <circle cx="80" cy="168" r="5.5" fill="#94a3b8"/>
    <line x1="108" y1="44" x2="132" y2="44" stroke="#94a3b8" stroke-width="2.5"/>
    <circle cx="132" cy="44" r="3" fill="#94a3b8"/>
    <line x1="55" y1="72" x2="30" y2="72" stroke="#94a3b8" stroke-width="2.5"/>
    <circle cx="30" cy="72" r="3" fill="#94a3b8"/>
  </g>
</svg>
