<svg xmlns="http://www.w3.org/2000/svg" viewBox="0 0 64 64" fill="none">
  <rect width="64" height="64" rx="14" fill="#0a1628"/>
  <g transform="translate(12, 6) scale(0.24)">
    <path d="M90 10 C40 10, 20 50, 60 80 C100 110, 80 150, 40 150 C20 150, 10 130, 30 110 C50 90, 90 90, 110 110 C130 130, 120 170, 90 180" 
          stroke="#3b82f6" stroke-width="14" stroke-linecap="round" fill="none"/>
    <circle cx="90" cy="10" r="7" fill="#3b82f6"/>
    <circle cx="110" cy="50" r="5" fill="#60a5fa"/>
    <circle cx="60" cy="80" r="6" fill="#3b82f6"/>
    <circle cx="40" cy="150" r="5" fill="#60a5fa"/>
    <circle cx="90" cy="180" r="7" fill="#3b82f6"/>
    <line x1="110" y1="50" x2="135" y2="50" stroke="#60a5fa" stroke-width="2.5"/>
    <line x1="60" y1="80" x2="35" y2="80" stroke="#60a5fa" stroke-width="2.5"/>
    <circle cx="135" cy="50" r="4" fill="#60a5fa"/>
    <circle cx="35" cy="80" r="4" fill="#60a5fa"/>
  </g>
</svg>
